<svg width="1366" height="377" xmlns="http://www.w3.org/2000/svg" style="vector-effect: non-scaling-stroke;" stroke="null">
 <title style="vector-effect: non-scaling-stroke;" stroke="null">cf logo</title>

 <g stroke="null" id="Layer_1">
  <title stroke="null">Layer 1</title>
  <rect transform="rotate(90 906.891 142.278)" stroke="null" id="svg_91" height="195.66909" width="168.47894" y="44.44317" x="822.65115" stroke-width="0" fill="#000000"/>
  <rect stroke="null" style="vector-effect: non-scaling-stroke;" id="svg_7" height="54" width="199.97355" y="57.51045" x="52.64142" stroke-width="0" fill="#000000"/>
  <rect transform="rotate(90 153.319 238.706)" stroke="null" style="vector-effect: non-scaling-stroke;" id="svg_11" height="195.66909" width="168.47894" y="140.87173" x="69.07919" stroke-width="0" fill="#000000"/>
  <path stroke="null" style="vector-effect: non-scaling-stroke;" id="svg_15" d="m54.35138,325.36246l0,-58.42106l58.42106,58.42106l-58.42106,0z" stroke-width="0" fill="#ffffff"/>
  <path transform="rotate(90 83.5616 182.887)" stroke="null" style="vector-effect: non-scaling-stroke;" id="svg_18" d="m54.35137,212.09804l0,-58.42106l58.42106,58.42106l-58.42106,0z" stroke-width="0" fill="#ffffff"/>
  <rect transform="rotate(-90 224.28 190.462)" stroke="null" style="vector-effect: non-scaling-stroke;" id="svg_24" height="55.68027" width="265.20409" y="162.62211" x="91.67761" stroke-width="0" fill="#000000"/>
  <path transform="rotate(-180 224.199 85.9721)" stroke="null" style="vector-effect: non-scaling-stroke;" id="svg_25" d="m194.98791,115.18232l0,-58.42106l58.42106,58.42106l-58.42106,0z" stroke-width="0" fill="#ffffff"/>
  <path transform="rotate(90 79.4908 85.4563)" stroke="null" style="vector-effect: non-scaling-stroke;" id="svg_26" d="m50.83888,114.1082l0,-57.30374l57.30374,57.30374l-57.30374,0z" stroke-width="0" fill="#ffffff"/>
  <rect stroke="null" style="vector-effect: non-scaling-stroke;" id="svg_23" height="64.29064" width="84.9269" y="203.88081" x="111.17908" stroke-width="0" fill="#ffffff"/>
  <path transform="rotate(90 224.199 296.208)" stroke="null" style="vector-effect: non-scaling-stroke;" id="svg_42" d="m195.77596,324.63124l0,-56.84626l56.84626,56.84626l-56.84626,0z" stroke-width="0" fill="#ffffff"/>
  <rect transform="rotate(90 403.713 295.792)" stroke="null" style="vector-effect: non-scaling-stroke;" id="svg_64" height="195.66909" width="54.30568" y="197.95779" x="376.56007" stroke-width="0" fill="#000000"/>
  <rect transform="rotate(-90 473.886 190.462)" stroke="null" style="vector-effect: non-scaling-stroke;" id="svg_66" height="55.68027" width="265.20409" y="162.62211" x="341.28395" stroke-width="0" fill="#000000"/>
  <rect transform="rotate(90 403.713 130.044)" stroke="null" style="vector-effect: non-scaling-stroke;" id="svg_67" height="195.66909" width="144.85688" y="32.20986" x="331.2841" stroke-width="0" fill="#000000"/>
  <rect stroke="null" id="svg_68" height="94.9993" width="84.9269" y="56.53125" x="361.61712" stroke-width="0" fill="#ffffff"/>
  <path transform="rotate(90 278.924 295.814)" stroke="null" id="svg_70" d="m251.68148,323.05646l0,-54.48404l54.48405,54.48404l-54.48405,0z" stroke-width="0" fill="#bf00bf"/>
  <path stroke="null" style="vector-effect: non-scaling-stroke;" id="svg_71" d="m502.07522,323.05646l0,-54.48405l54.48406,54.48405l-54.48406,0z" stroke-width="0" fill="#bf00bf"/>
  <rect stroke="null" style="vector-effect: non-scaling-stroke;" id="svg_72" height="54" width="199.97355" y="58.29785" x="553.95712" stroke-width="0" fill="#000000"/>
  <rect transform="rotate(90 654.634 239.494)" stroke="null" style="vector-effect: non-scaling-stroke;" id="svg_73" height="195.66909" width="168.47894" y="141.65913" x="570.39489" stroke-width="0" fill="#000000"/>
  <path stroke="null" id="svg_74" d="m555.66707,326.14986l0,-58.42106l58.42106,58.42106l-58.42106,0z" stroke-width="0" fill="#ffffff"/>
  <path transform="rotate(90 584.877 183.675)" stroke="null" style="vector-effect: non-scaling-stroke;" id="svg_75" d="m555.66707,212.88544l0,-58.42106l58.42106,58.42106l-58.42106,0z" stroke-width="0" fill="#ffffff"/>
  <rect transform="rotate(-90 725.595 191.249)" stroke="null" style="vector-effect: non-scaling-stroke;" id="svg_76" height="55.68027" width="265.20409" y="163.40951" x="592.9933" stroke-width="0" fill="#000000"/>
  <path transform="rotate(-180 725.513 86.7597)" stroke="null" id="svg_77" d="m696.30361,115.96972l0,-58.42106l58.42106,58.42106l-58.42106,0z" stroke-width="0" fill="#ffffff"/>
  <path transform="rotate(90 580.806 86.2436)" stroke="null" id="svg_78" d="m552.15457,114.8956l0,-57.30374l57.30374,57.30374l-57.30374,0z" stroke-width="0" fill="#ffffff"/>
  <rect stroke="null" style="vector-effect: non-scaling-stroke;" id="svg_79" height="64.29064" width="84.9269" y="204.66821" x="612.49477" stroke-width="0" fill="#ffffff"/>
  <path transform="rotate(90 725.513 296.996)" stroke="null" style="vector-effect: non-scaling-stroke;" id="svg_80" d="m697.09165,325.41864l0,-56.84625l56.84626,56.84625l-56.84626,0z" stroke-width="0" fill="#ffffff"/>
  <path transform="rotate(90 333.389 296.208)" stroke="null" style="vector-effect: non-scaling-stroke;" id="svg_81" d="m304.96566,324.63124l0,-56.84625l56.84626,56.84625l-56.84626,0z" stroke-width="0" fill="#ffffff"/>
  <path stroke="null" style="vector-effect: non-scaling-stroke;" id="svg_82" d="m304.96566,203.3714l0,-56.84625l56.84626,56.84625l-56.84626,0z" stroke-width="0" fill="#ffffff"/>
  <path transform="rotate(-90 473.672 296.208)" stroke="null" style="vector-effect: non-scaling-stroke;" id="svg_85" d="m445.24817,324.63124l0,-56.84625l56.84626,56.84625l-56.84626,0z" stroke-width="0" fill="#ffffff"/>
  <path transform="rotate(90 780.21 296.707)" stroke="null" id="svg_87" d="m752.96806,323.94932l0,-54.48405l54.48406,54.48405l-54.48406,0z" stroke-width="0" fill="#bf00bf"/>
  <rect transform="rotate(-90 835.494 189.569)" stroke="null" id="svg_88" height="55.68027" width="265.20409" y="161.72925" x="702.89107" stroke-width="0" fill="#000000"/>
  <rect stroke="null" id="svg_90" height="64.29064" width="84.9269" y="107.45225" x="864.86925" stroke-width="0" fill="#ffffff"/>
  <rect transform="rotate(-90 976.562 214.567)" stroke="null" id="svg_95" height="55.68027" width="216.98987" y="186.72677" x="868.06712" stroke-width="0" fill="#000000"/>
  <path transform="rotate(-180 976.728 199.055)" stroke="null" id="svg_97" d="m947.85682,227.47796l0,-56.84625l57.73912,56.84625l-57.73912,0z" stroke-width="0" fill="#ffffff"/>
  <path transform="rotate(90 835.271 84.8543)" stroke="null" id="svg_100" d="m806.61883,113.50671l0,-57.30374l57.30374,57.30374l-57.30374,0z" stroke-width="0" fill="#ffffff"/>
  <rect stroke="null" style="vector-effect: non-scaling-stroke;" id="svg_113" height="54" width="199.97355" y="57.51045" x="1056.21278" stroke-width="0" fill="#000000"/>
  <rect transform="rotate(90 1156.89 238.706)" stroke="null" style="vector-effect: non-scaling-stroke;" id="svg_114" height="195.66909" width="168.47894" y="140.87173" x="1072.65055" stroke-width="0" fill="#000000"/>
  <path stroke="null" style="vector-effect: non-scaling-stroke;" id="svg_115" d="m1057.92273,325.36246l0,-58.42106l58.42106,58.42106l-58.42106,0z" stroke-width="0" fill="#ffffff"/>
  <path transform="rotate(90 1087.13 182.887)" stroke="null" style="vector-effect: non-scaling-stroke;" id="svg_116" d="m1057.92273,212.09804l0,-58.42106l58.42106,58.42106l-58.42106,0z" stroke-width="0" fill="#ffffff"/>
  <rect transform="rotate(-90 1227.85 190.462)" stroke="null" style="vector-effect: non-scaling-stroke;" id="svg_117" height="55.68027" width="265.20409" y="162.62211" x="1095.24896" stroke-width="0" fill="#000000"/>
  <path transform="rotate(-180 1227.77 85.9723)" stroke="null" style="vector-effect: non-scaling-stroke;" id="svg_118" d="m1198.55927,115.18232l0,-58.42106l58.42106,58.42106l-58.42106,0z" stroke-width="0" fill="#ffffff"/>
  <path transform="rotate(90 1083.06 85.4562)" stroke="null" style="vector-effect: non-scaling-stroke;" id="svg_119" d="m1054.41023,114.1082l0,-57.30374l57.30374,57.30374l-57.30374,0z" stroke-width="0" fill="#ffffff"/>
  <rect stroke="null" style="vector-effect: non-scaling-stroke;" id="svg_120" height="64.29064" width="84.9269" y="203.88081" x="1114.75043" stroke-width="0" fill="#ffffff"/>
  <path transform="rotate(90 1227.77 296.208)" stroke="null" style="vector-effect: non-scaling-stroke;" id="svg_121" d="m1199.34731,324.63124l0,-56.84625l56.84626,56.84625l-56.84626,0z" stroke-width="0" fill="#ffffff"/>
  <path transform="rotate(90 1282.5 295.814)" stroke="null" id="svg_122" d="m1255.25283,323.05646l0,-54.48405l54.48406,54.48405l-54.48406,0z" stroke-width="0" fill="#bf00bf"/>
  <path transform="rotate(-180 1031.1 296.707)" stroke="null" id="svg_112" d="m1003.8625,323.94932l0,-54.48405l54.48406,54.48405l-54.48406,0z" stroke-width="0" fill="#bf00bf"/>
  <path stroke="null" id="svg_124" d="m304.39443,115.96972l0,-58.42106l58.42106,58.42106l-58.42106,0z" stroke-width="0" fill="#ffffff"/>
  <path stroke="null" id="svg_129" d="m805.94285,323.23416l0,-56.84625l57.73912,56.84625l-57.73912,0z" stroke-width="0" fill="#ffffff"/>
 </g>
</svg>