<svg width="1366" height="377" xmlns="http://www.w3.org/2000/svg" stroke="null">
 <title stroke="null">cf logo</title>

 <g id="Layer_1" stroke="null">
  <title stroke="null">Layer 1</title>
  <rect transform="rotate(90 906.891 142.278)" fill="#ffffff" stroke-width="0" x="822.65115" y="44.44317" width="168.47894" height="195.66909" id="svg_91" stroke="null"/>
  <rect fill="#ffffff" stroke-width="0" x="52.64142" y="57.51045" width="199.97355" height="54" id="svg_7" stroke="null"/>
  <rect transform="rotate(90 153.319 238.706)" fill="#ffffff" stroke-width="0" x="69.07919" y="140.87173" width="168.47894" height="195.66909" id="svg_11" stroke="null"/>
  <path fill="#000000" stroke-width="0" d="m54.35138,325.36246l0,-58.42106l58.42106,58.42106l-58.42106,0z" id="svg_15" stroke="null"/>
  <path transform="rotate(90 83.5619 182.888)" fill="#000000" stroke-width="0" d="m54.35137,212.09804l0,-58.42106l58.42106,58.42106l-58.42106,0z" id="svg_18" stroke="null"/>
  <rect transform="rotate(-90 224.28 190.462)" fill="#ffffff" stroke-width="0" x="91.67761" y="162.62211" width="265.20409" height="55.68027" id="svg_24" stroke="null"/>
  <path transform="rotate(-180 224.198 85.9718)" fill="#000000" stroke-width="0" d="m194.98791,115.18232l0,-58.42106l58.42106,58.42106l-58.42106,0z" id="svg_25" stroke="null"/>
  <path transform="rotate(90 79.4907 85.4563)" fill="#000000" stroke-width="0" d="m50.83888,114.1082l0,-57.30374l57.30374,57.30374l-57.30374,0z" id="svg_26" stroke="null"/>
  <rect fill="#000000" stroke-width="0" x="111.17908" y="203.88081" width="84.9269" height="64.29064" id="svg_23" stroke="null"/>
  <path transform="rotate(90 224.199 296.208)" fill="#000000" stroke-width="0" d="m195.77596,324.63124l0,-56.84626l56.84626,56.84626l-56.84626,0z" id="svg_42" stroke="null"/>
  <rect transform="rotate(90 403.713 295.792)" fill="#ffffff" stroke-width="0" x="376.56007" y="197.95779" width="54.30568" height="195.66909" id="svg_64" stroke="null"/>
  <rect transform="rotate(-90 473.886 190.462)" fill="#ffffff" stroke-width="0" x="341.28395" y="162.62211" width="265.20409" height="55.68027" id="svg_66" stroke="null"/>
  <rect transform="rotate(90 403.713 130.044)" fill="#ffffff" stroke-width="0" x="331.2841" y="32.20986" width="144.85688" height="195.66909" id="svg_67" stroke="null"/>
  <rect fill="#000000" stroke-width="0" x="361.61712" y="56.53125" width="84.9269" height="94.9993" id="svg_68" stroke="null"/>
  <rect fill="#ffffff" stroke-width="0" x="553.95712" y="58.29785" width="199.97355" height="54" id="svg_72" stroke="null"/>
  <rect transform="rotate(90 654.634 239.494)" fill="#ffffff" stroke-width="0" x="570.39489" y="141.65913" width="168.47894" height="195.66909" id="svg_73" stroke="null"/>
  <path fill="#000000" stroke-width="0" d="m555.66707,326.14986l0,-58.42106l58.42106,58.42106l-58.42106,0z" id="svg_74" stroke="null"/>
  <path transform="rotate(90 584.878 183.675)" fill="#000000" stroke-width="0" d="m555.66707,212.88544l0,-58.42106l58.42106,58.42106l-58.42106,0z" id="svg_75" stroke="null"/>
  <rect transform="rotate(-90 725.595 191.25)" fill="#ffffff" stroke-width="0" x="592.9933" y="163.40951" width="265.20409" height="55.68027" id="svg_76" stroke="null"/>
  <path transform="rotate(-180 725.514 86.7592)" fill="#000000" stroke-width="0" d="m696.30361,115.96972l0,-58.42106l58.42106,58.42106l-58.42106,0z" id="svg_77" stroke="null"/>
  <path transform="rotate(90 580.806 86.2437)" fill="#000000" stroke-width="0" d="m552.15457,114.8956l0,-57.30374l57.30374,57.30374l-57.30374,0z" id="svg_78" stroke="null"/>
  <rect fill="#000000" stroke-width="0" x="612.49477" y="204.66821" width="84.9269" height="64.29064" id="svg_79" stroke="null"/>
  <path transform="rotate(90 725.515 296.995)" fill="#000000" stroke-width="0" d="m697.09165,325.41864l0,-56.84625l56.84626,56.84625l-56.84626,0z" id="svg_80" stroke="null"/>
  <path transform="rotate(90 333.389 296.208)" fill="#000000" stroke-width="0" d="m304.96566,324.63124l0,-56.84625l56.84626,56.84625l-56.84626,0z" id="svg_81" stroke="null"/>
  <path fill="#000000" stroke-width="0" d="m304.96566,203.3714l0,-56.84625l56.84626,56.84625l-56.84626,0z" id="svg_82" stroke="null"/>
  <path transform="rotate(-90 475.06 296.208)" fill="#000000" stroke-width="0" d="m446.63706,324.63124l0,-56.84625l56.84626,56.84625l-56.84626,0z" id="svg_85" stroke="null"/>
  <rect transform="rotate(-90 835.493 189.569)" fill="#ffffff" stroke-width="0" x="702.89107" y="161.72925" width="265.20409" height="55.68027" id="svg_88" stroke="null"/>
  <rect fill="#000000" stroke-width="0" x="864.86925" y="107.45225" width="84.9269" height="64.29064" id="svg_90" stroke="null"/>
  <rect transform="rotate(-90 976.562 214.567)" fill="#ffffff" stroke-width="0" x="868.06712" y="186.72677" width="216.98987" height="55.68027" id="svg_95" stroke="null"/>
  <path transform="rotate(-180 976.726 199.055)" fill="#000000" stroke-width="0" d="m947.85682,227.47796l0,-56.84625l57.73912,56.84625l-57.73912,0z" id="svg_97" stroke="null"/>
  <path transform="rotate(90 835.271 84.8548)" fill="#000000" stroke-width="0" d="m806.61883,113.50671l0,-57.30374l57.30374,57.30374l-57.30374,0z" id="svg_100" stroke="null"/>
  <rect fill="#ffffff" stroke-width="0" x="1056.21278" y="57.51045" width="199.97355" height="54" id="svg_113" stroke="null"/>
  <rect transform="rotate(90 1156.89 238.706)" fill="#ffffff" stroke-width="0" x="1072.65055" y="140.87173" width="168.47894" height="195.66909" id="svg_114" stroke="null"/>
  <path fill="#000000" stroke-width="0" d="m1057.92273,325.36246l0,-58.42106l58.42106,58.42106l-58.42106,0z" id="svg_115" stroke="null"/>
  <path transform="rotate(90 1087.13 182.887)" fill="#000000" stroke-width="0" d="m1057.92273,212.09804l0,-58.42106l58.42106,58.42106l-58.42106,0z" id="svg_116" stroke="null"/>
  <rect transform="rotate(-90 1227.85 190.462)" fill="#ffffff" stroke-width="0" x="1095.24896" y="162.62211" width="265.20409" height="55.68027" id="svg_117" stroke="null"/>
  <path transform="rotate(-180 1227.77 85.9718)" fill="#000000" stroke-width="0" d="m1198.55927,115.18232l0,-58.42106l58.42106,58.42106l-58.42106,0z" id="svg_118" stroke="null"/>
  <path transform="rotate(90 1083.06 85.4563)" fill="#000000" stroke-width="0" d="m1054.41023,114.1082l0,-57.30374l57.30374,57.30374l-57.30374,0z" id="svg_119" stroke="null"/>
  <rect fill="#000000" stroke-width="0" x="1114.75043" y="203.88081" width="84.9269" height="64.29064" id="svg_120" stroke="null"/>
  <path transform="rotate(90 1227.77 296.208)" fill="#000000" stroke-width="0" d="m1199.34731,324.63124l0,-56.84625l56.84626,56.84625l-56.84626,0z" id="svg_121" stroke="null"/>
  <path fill="#000000" stroke-width="0" d="m304.39443,115.96972l0,-58.42106l58.42106,58.42106l-58.42106,0z" id="svg_124" stroke="null"/>
  <path fill="#000000" stroke-width="0" d="m805.94285,323.23416l0,-56.84625l57.73912,56.84625l-57.73912,0z" id="svg_129" stroke="null"/>
  <path transform="rotate(90 781.258 296.833)" stroke="null" fill="#b501b5" stroke-width="0" d="m753.46027,324.63127l0,-55.59626l55.59626,55.59626l-55.59626,0z" id="svg_3"/>
  <path stroke="null" fill="#b501b5" stroke-width="0" d="m501.95829,324.63124l0,-56.84626l56.84626,56.84626l-56.84626,0z" id="svg_4"/>
  <path transform="rotate(-180 1032.07 295.396)" stroke="null" fill="#b501b5" stroke-width="0" d="m1005.08905,323.00624l0,-53.97126l53.97126,53.97126l-53.97126,0z" id="svg_5"/>
  <path transform="rotate(90 280.008 296.208)" stroke="null" fill="#b501b5" stroke-width="0" d="m252.21042,324.00627l0,-55.59626l55.59626,55.59626l-55.59626,0z" id="svg_8"/>
  <path transform="rotate(90 1283.15 296.208)" stroke="null" fill="#b501b5" stroke-width="0" d="m1255.35416,324.00627l0,-55.59626l55.59626,55.59626l-55.59626,0z" id="svg_9"/>
 </g>
</svg>